<svg xmlns="http://www.w3.org/2000/svg" viewBox="0 0 64 64">
  <rect width="64" height="64" rx="16" fill="#f0f9ff" />
  <rect x="7" y="7" width="50" height="50" rx="14" fill="#e0f2fe" />
  <path fill="#7dd3fc" opacity=".28" d="M17 17c-.8-.8-.8-2 0-2.8.4-.4 1-.6 1.6-.6 0-.6.2-1.1.6-1.6.8-.8 2-.8 2.8 0 .4.4.6 1 .6 1.6.6 0 1.1.2 1.6.6.8.8.8 2 0 2.8-.4.4-1 .6-1.6.6 0 .6-.2 1.1-.6 1.6-.8.8-2 .8-2.8 0-.4-.4-.6-1-.6-1.6-.6 0-1.1-.2-1.6-.6Z" />
  <path fill="#7dd3fc" opacity=".28" d="M41 17c-.8-.8-.8-2 0-2.8.4-.4 1-.6 1.6-.6 0-.6.2-1.1.6-1.6.8-.8 2-.8 2.8 0 .4.4.6 1 .6 1.6.6 0 1.1.2 1.6.6.8.8.8 2 0 2.8-.4.4-1 .6-1.6.6 0 .6-.2 1.1-.6 1.6-.8.8-2 .8-2.8 0-.4-.4-.6-1-.6-1.6-.6 0-1.1-.2-1.6-.6Z" />
  <path fill="#bae6fd" opacity=".72" d="M14 48c5.8 4.5 11.6 6.8 18 6.8s12.2-2.3 18-6.8v8H14v-8Z" />
  <path fill="#274465" d="M16 20.5c-6.9 5.3-9.4 15.2-6.8 23.5 1.2 3.6 3.6 5.8 6.6 5.8 3.9 0 6.5-3.8 6.9-9.7.5-7.7-1.9-15.3-6.7-19.6Z" />
  <path fill="#274465" d="M48 20.5c6.9 5.3 9.4 15.2 6.8 23.5-1.2 3.6-3.6 5.8-6.6 5.8-3.9 0-6.5-3.8-6.9-9.7-.5-7.7 1.9-15.3 6.7-19.6Z" />
  <path fill="#315379" d="M32 9.6c-10.4 0-18 8.3-18 20.3 0 12.2 6.9 21.5 18 21.5s18-9.3 18-21.5c0-12-7.6-20.3-18-20.3Z" />
  <path fill="#6f92ba" opacity=".8" d="M31 11.4c-4.3 3-6.5 8.9-6.3 16.4.1 5.3 1.3 9.5 3.7 12.7-1.4-6.6-.5-15 2.6-29.1Z" />
  <ellipse cx="23.9" cy="29.5" rx="2.7" ry="2.4" fill="#0ea5e9" />
  <ellipse cx="40.1" cy="29.5" rx="2.7" ry="2.4" fill="#0ea5e9" />
  <circle cx="23.9" cy="29.5" r="1.1" fill="#16304c" />
  <circle cx="40.1" cy="29.5" r="1.1" fill="#16304c" />
  <path fill="#3f648e" d="M20.5 38.5c1.9-5 5.8-7.6 11.5-7.6s9.6 2.6 11.5 7.6c1.8 4.8-1 9.8-5.3 12.1-2.3 1.2-4.4.4-6.2-1.3-1.8 1.7-3.9 2.5-6.2 1.3-4.3-2.3-7.1-7.3-5.3-12.1Z" />
  <path fill="#16304c" d="M26 39.2c0-2.5 2.4-4.3 6-4.3s6 1.8 6 4.3c0 2.8-2.7 4.7-6 4.7s-6-1.9-6-4.7Z" />
  <path fill="#f08a9a" d="M28.8 46.7c.6 2 1.7 5.4 3.2 5.4s2.6-3.4 3.2-5.4c-1.1.5-2.2.8-3.2.8s-2.1-.3-3.2-.8Z" />
</svg>
