<svg xmlns="http://www.w3.org/2000/svg" viewBox="0 0 64 64">
  <defs>
    <linearGradient id="sky" x1="0" y1="0" x2="1" y2="1">
      <stop offset="0" stop-color="#38bdf8" />
      <stop offset="1" stop-color="#0369a1" />
    </linearGradient>
  </defs>
  <rect width="64" height="64" rx="16" fill="url(#sky)" />
  <ellipse cx="15.5" cy="33" rx="7" ry="12.5" transform="rotate(14 15.5 33)" fill="#bae6fd" />
  <ellipse cx="48.5" cy="33" rx="7" ry="12.5" transform="rotate(-14 48.5 33)" fill="#bae6fd" />
  <path fill="#f8fafc" d="M32 12c-10.5 0-17 7.6-17 17.5 0 10.5 6.8 18 17 18s17-7.5 17-18C49 19.6 42.5 12 32 12Z" />
  <ellipse cx="32" cy="38.5" rx="9" ry="7" fill="#ffffff" />
  <circle cx="25" cy="27.5" r="2.3" fill="#0f2c4a" />
  <circle cx="39" cy="27.5" r="2.3" fill="#0f2c4a" />
  <circle cx="25.8" cy="26.7" r="0.75" fill="#ffffff" opacity="0.9" />
  <circle cx="39.8" cy="26.7" r="0.75" fill="#ffffff" opacity="0.9" />
  <path fill="#0f2c4a" d="M32 33.4c2.7 0 4.3 1.3 4.3 3 0 2-1.9 3.4-4.3 3.4s-4.3-1.4-4.3-3.4c0-1.7 1.6-3 4.3-3Z" />
  <path fill="#fb7185" d="M29.4 41.9c.5 1.7 1.4 3.9 2.6 3.9s2.1-2.2 2.6-3.9c-.9.4-1.7.6-2.6.6s-1.7-.2-2.6-.6Z" />
  <rect x="23" y="50.5" width="18" height="6.5" rx="3.2" fill="#ffffff" />
  <text x="32" y="55.6" text-anchor="middle" font-family="Inter, sans-serif" font-size="5" font-weight="800" letter-spacing="0.08em" fill="#0369a1">VS</text>
</svg>
